<svg width="147" height="17" viewBox="0 0 147 17" fill="none" xmlns="http://www.w3.org/2000/svg">
<path d="M0.58 1.84H6.16C7.09333 1.84 7.99333 1.98667 8.86 2.28C9.72667 2.56 10.4933 2.99333 11.16 3.58C11.8267 4.16667 12.36 4.90667 12.76 5.8C13.16 6.68 13.36 7.72 13.36 8.92C13.36 10.1333 13.1267 11.1867 12.66 12.08C12.2067 12.96 11.6133 13.6933 10.88 14.28C10.16 14.8533 9.35333 15.2867 8.46 15.58C7.58 15.86 6.71333 16 5.86 16H0.58V1.84ZM4.98 13.72C5.76667 13.72 6.50667 13.6333 7.2 13.46C7.90667 13.2733 8.52 12.9933 9.04 12.62C9.56 12.2333 9.96667 11.74 10.26 11.14C10.5667 10.5267 10.72 9.78667 10.72 8.92C10.72 8.06667 10.5867 7.33333 10.32 6.72C10.0533 6.10667 9.68 5.61333 9.2 5.24C8.73333 4.85333 8.17333 4.57333 7.52 4.4C6.88 4.21333 6.17333 4.12 5.4 4.12H3.1V13.72H4.98ZM21.5358 14.68H21.4758C21.1291 15.2267 20.6891 15.6267 20.1558 15.88C19.6224 16.12 19.0358 16.24 18.3958 16.24C17.9558 16.24 17.5224 16.18 17.0958 16.06C16.6824 15.94 16.3091 15.76 15.9758 15.52C15.6558 15.28 15.3958 14.98 15.1958 14.62C14.9958 14.26 14.8958 13.84 14.8958 13.36C14.8958 12.84 14.9891 12.4 15.1758 12.04C15.3624 11.6667 15.6091 11.36 15.9158 11.12C16.2358 10.8667 16.6024 10.6667 17.0158 10.52C17.4291 10.3733 17.8558 10.2667 18.2958 10.2C18.7491 10.12 19.2024 10.0733 19.6558 10.06C20.1091 10.0333 20.5358 10.02 20.9358 10.02H21.5358V9.76C21.5358 9.16 21.3291 8.71333 20.9158 8.42C20.5024 8.11333 19.9758 7.96 19.3358 7.96C18.8291 7.96 18.3558 8.05333 17.9158 8.24C17.4758 8.41333 17.0958 8.65333 16.7758 8.96L15.5158 7.7C16.0491 7.15333 16.6691 6.76 17.3758 6.52C18.0958 6.28 18.8358 6.16 19.5958 6.16C20.2758 6.16 20.8491 6.24 21.3158 6.4C21.7824 6.54667 22.1691 6.74 22.4758 6.98C22.7824 7.22 23.0158 7.5 23.1758 7.82C23.3491 8.12667 23.4691 8.44 23.5358 8.76C23.6158 9.08 23.6624 9.39333 23.6758 9.7C23.6891 9.99333 23.6958 10.2533 23.6958 10.48V16H21.5358V14.68ZM21.3958 11.7H20.8958C20.5624 11.7 20.1891 11.7133 19.7758 11.74C19.3624 11.7667 18.9691 11.8333 18.5958 11.94C18.2358 12.0333 17.9291 12.18 17.6758 12.38C17.4224 12.5667 17.2958 12.8333 17.2958 13.18C17.2958 13.4067 17.3424 13.6 17.4358 13.76C17.5424 13.9067 17.6758 14.0333 17.8358 14.14C17.9958 14.2467 18.1758 14.3267 18.3758 14.38C18.5758 14.42 18.7758 14.44 18.9758 14.44C19.8024 14.44 20.4091 14.2467 20.7958 13.86C21.1958 13.46 21.3958 12.92 21.3958 12.24V11.7ZM25.158 8.44V6.4H27.138V3.62H29.538V6.4H32.178V8.44H29.538V12.64C29.538 13.12 29.6246 13.5 29.798 13.78C29.9846 14.06 30.3446 14.2 30.878 14.2C31.0913 14.2 31.3246 14.18 31.578 14.14C31.8313 14.0867 32.0313 14.0067 32.178 13.9V15.92C31.9246 16.04 31.6113 16.12 31.238 16.16C30.878 16.2133 30.558 16.24 30.278 16.24C29.638 16.24 29.1113 16.1667 28.698 16.02C28.298 15.8867 27.978 15.68 27.738 15.4C27.5113 15.1067 27.3513 14.7467 27.258 14.32C27.178 13.8933 27.138 13.4 27.138 12.84V8.44H25.158ZM40.0514 14.68H39.9914C39.6447 15.2267 39.2047 15.6267 38.6714 15.88C38.1381 16.12 37.5514 16.24 36.9114 16.24C36.4714 16.24 36.0381 16.18 35.6114 16.06C35.1981 15.94 34.8247 15.76 34.4914 15.52C34.1714 15.28 33.9114 14.98 33.7114 14.62C33.5114 14.26 33.4114 13.84 33.4114 13.36C33.4114 12.84 33.5047 12.4 33.6914 12.04C33.8781 11.6667 34.1247 11.36 34.4314 11.12C34.7514 10.8667 35.1181 10.6667 35.5314 10.52C35.9447 10.3733 36.3714 10.2667 36.8114 10.2C37.2647 10.12 37.7181 10.0733 38.1714 10.06C38.6247 10.0333 39.0514 10.02 39.4514 10.02H40.0514V9.76C40.0514 9.16 39.8447 8.71333 39.4314 8.42C39.0181 8.11333 38.4914 7.96 37.8514 7.96C37.3447 7.96 36.8714 8.05333 36.4314 8.24C35.9914 8.41333 35.6114 8.65333 35.2914 8.96L34.0314 7.7C34.5647 7.15333 35.1847 6.76 35.8914 6.52C36.6114 6.28 37.3514 6.16 38.1114 6.16C38.7914 6.16 39.3647 6.24 39.8314 6.4C40.2981 6.54667 40.6847 6.74 40.9914 6.98C41.2981 7.22 41.5314 7.5 41.6914 7.82C41.8647 8.12667 41.9847 8.44 42.0514 8.76C42.1314 9.08 42.1781 9.39333 42.1914 9.7C42.2047 9.99333 42.2114 10.2533 42.2114 10.48V16H40.0514V14.68ZM39.9114 11.7H39.4114C39.0781 11.7 38.7047 11.7133 38.2914 11.74C37.8781 11.7667 37.4847 11.8333 37.1114 11.94C36.7514 12.0333 36.4447 12.18 36.1914 12.38C35.9381 12.5667 35.8114 12.8333 35.8114 13.18C35.8114 13.4067 35.8581 13.6 35.9514 13.76C36.0581 13.9067 36.1914 14.0333 36.3514 14.14C36.5114 14.2467 36.6914 14.3267 36.8914 14.38C37.0914 14.42 37.2914 14.44 37.4914 14.44C38.3181 14.44 38.9247 14.2467 39.3114 13.86C39.7114 13.46 39.9114 12.92 39.9114 12.24V11.7ZM43.4336 1.84H46.1936L48.8536 12.04H48.8936L52.0736 1.84H54.5536L57.6736 12.04H57.7136L60.4936 1.84H63.0536L58.9336 16H56.5336L53.2536 5.22H53.2136L49.9336 16H47.6136L43.4336 1.84ZM69.6803 14.68H69.6203C69.2736 15.2267 68.8336 15.6267 68.3003 15.88C67.767 16.12 67.1803 16.24 66.5403 16.24C66.1003 16.24 65.667 16.18 65.2403 16.06C64.827 15.94 64.4536 15.76 64.1203 15.52C63.8003 15.28 63.5403 14.98 63.3403 14.62C63.1403 14.26 63.0403 13.84 63.0403 13.36C63.0403 12.84 63.1336 12.4 63.3203 12.04C63.507 11.6667 63.7536 11.36 64.0603 11.12C64.3803 10.8667 64.747 10.6667 65.1603 10.52C65.5736 10.3733 66.0003 10.2667 66.4403 10.2C66.8936 10.12 67.347 10.0733 67.8003 10.06C68.2536 10.0333 68.6803 10.02 69.0803 10.02H69.6803V9.76C69.6803 9.16 69.4736 8.71333 69.0603 8.42C68.647 8.11333 68.1203 7.96 67.4803 7.96C66.9736 7.96 66.5003 8.05333 66.0603 8.24C65.6203 8.41333 65.2403 8.65333 64.9203 8.96L63.6603 7.7C64.1936 7.15333 64.8136 6.76 65.5203 6.52C66.2403 6.28 66.9803 6.16 67.7403 6.16C68.4203 6.16 68.9936 6.24 69.4603 6.4C69.927 6.54667 70.3136 6.74 70.6203 6.98C70.927 7.22 71.1603 7.5 71.3203 7.82C71.4936 8.12667 71.6136 8.44 71.6803 8.76C71.7603 9.08 71.807 9.39333 71.8203 9.7C71.8336 9.99333 71.8403 10.2533 71.8403 10.48V16H69.6803V14.68ZM69.5403 11.7H69.0403C68.707 11.7 68.3336 11.7133 67.9203 11.74C67.507 11.7667 67.1136 11.8333 66.7403 11.94C66.3803 12.0333 66.0736 12.18 65.8203 12.38C65.567 12.5667 65.4403 12.8333 65.4403 13.18C65.4403 13.4067 65.487 13.6 65.5803 13.76C65.687 13.9067 65.8203 14.0333 65.9803 14.14C66.1403 14.2467 66.3203 14.3267 66.5203 14.38C66.7203 14.42 66.9203 14.44 67.1203 14.44C67.947 14.44 68.5536 14.2467 68.9403 13.86C69.3403 13.46 69.5403 12.92 69.5403 12.24V11.7ZM74.4225 6.4H76.8225V7.92H76.8625C77.1292 7.36 77.5092 6.92667 78.0025 6.62C78.4958 6.31333 79.0625 6.16 79.7025 6.16C79.8492 6.16 79.9892 6.17333 80.1225 6.2C80.2692 6.22667 80.4158 6.26 80.5625 6.3V8.62C80.3625 8.56667 80.1625 8.52667 79.9625 8.5C79.7758 8.46 79.5892 8.44 79.4025 8.44C78.8425 8.44 78.3892 8.54667 78.0425 8.76C77.7092 8.96 77.4492 9.19333 77.2625 9.46C77.0892 9.72667 76.9692 9.99333 76.9025 10.26C76.8492 10.5267 76.8225 10.7267 76.8225 10.86V16H74.4225V6.4ZM83.7644 12.04C83.8444 12.76 84.1244 13.32 84.6044 13.72C85.0844 14.12 85.6644 14.32 86.3444 14.32C86.9444 14.32 87.4444 14.2 87.8444 13.96C88.2577 13.7067 88.6177 13.3933 88.9244 13.02L90.6444 14.32C90.0844 15.0133 89.4577 15.5067 88.7644 15.8C88.071 16.0933 87.3444 16.24 86.5844 16.24C85.8644 16.24 85.1844 16.12 84.5444 15.88C83.9044 15.64 83.351 15.3 82.8844 14.86C82.4177 14.42 82.0444 13.8933 81.7644 13.28C81.4977 12.6533 81.3644 11.96 81.3644 11.2C81.3644 10.44 81.4977 9.75333 81.7644 9.14C82.0444 8.51333 82.4177 7.98 82.8844 7.54C83.351 7.1 83.9044 6.76 84.5444 6.52C85.1844 6.28 85.8644 6.16 86.5844 6.16C87.251 6.16 87.8577 6.28 88.4044 6.52C88.9644 6.74667 89.4377 7.08 89.8244 7.52C90.2244 7.96 90.531 8.50667 90.7444 9.16C90.971 9.8 91.0844 10.54 91.0844 11.38V12.04H83.7644ZM88.6844 10.24C88.671 9.53333 88.451 8.98 88.0244 8.58C87.5977 8.16667 87.0044 7.96 86.2444 7.96C85.5244 7.96 84.951 8.16667 84.5244 8.58C84.111 8.99333 83.8577 9.54667 83.7644 10.24H88.6844ZM95.7288 7.74H95.7688C95.9554 7.34 96.2821 6.98 96.7488 6.66C97.2288 6.32667 97.8421 6.16 98.5888 6.16C99.2288 6.16 99.7688 6.26667 100.209 6.48C100.662 6.69333 101.029 6.97333 101.309 7.32C101.589 7.66667 101.789 8.06667 101.909 8.52C102.029 8.97333 102.089 9.44667 102.089 9.94V16H99.6888V11.14C99.6888 10.8733 99.6754 10.58 99.6488 10.26C99.6221 9.92667 99.5488 9.62 99.4288 9.34C99.3221 9.04667 99.1488 8.80667 98.9088 8.62C98.6688 8.42 98.3421 8.32 97.9288 8.32C97.5288 8.32 97.1888 8.38667 96.9088 8.52C96.6421 8.65333 96.4154 8.83333 96.2288 9.06C96.0554 9.28667 95.9288 9.54667 95.8488 9.84C95.7688 10.1333 95.7288 10.44 95.7288 10.76V16H93.3288V0.879999H95.7288V7.74ZM104.333 11.2C104.333 10.44 104.466 9.75333 104.733 9.14C105.013 8.51333 105.386 7.98 105.853 7.54C106.32 7.1 106.873 6.76 107.513 6.52C108.153 6.28 108.833 6.16 109.553 6.16C110.273 6.16 110.953 6.28 111.593 6.52C112.233 6.76 112.786 7.1 113.253 7.54C113.72 7.98 114.086 8.51333 114.353 9.14C114.633 9.75333 114.773 10.44 114.773 11.2C114.773 11.96 114.633 12.6533 114.353 13.28C114.086 13.8933 113.72 14.42 113.253 14.86C112.786 15.3 112.233 15.64 111.593 15.88C110.953 16.12 110.273 16.24 109.553 16.24C108.833 16.24 108.153 16.12 107.513 15.88C106.873 15.64 106.32 15.3 105.853 14.86C105.386 14.42 105.013 13.8933 104.733 13.28C104.466 12.6533 104.333 11.96 104.333 11.2ZM106.733 11.2C106.733 11.5733 106.793 11.9333 106.913 12.28C107.046 12.6267 107.233 12.9333 107.473 13.2C107.726 13.4667 108.026 13.68 108.373 13.84C108.72 14 109.113 14.08 109.553 14.08C109.993 14.08 110.386 14 110.733 13.84C111.08 13.68 111.373 13.4667 111.613 13.2C111.866 12.9333 112.053 12.6267 112.173 12.28C112.306 11.9333 112.373 11.5733 112.373 11.2C112.373 10.8267 112.306 10.4667 112.173 10.12C112.053 9.77333 111.866 9.46667 111.613 9.2C111.373 8.93333 111.08 8.72 110.733 8.56C110.386 8.4 109.993 8.32 109.553 8.32C109.113 8.32 108.72 8.4 108.373 8.56C108.026 8.72 107.726 8.93333 107.473 9.2C107.233 9.46667 107.046 9.77333 106.913 10.12C106.793 10.4667 106.733 10.8267 106.733 11.2ZM125.78 16H123.5V14.46H123.46C123.233 14.94 122.887 15.36 122.42 15.72C121.953 16.0667 121.32 16.24 120.52 16.24C119.88 16.24 119.333 16.14 118.88 15.94C118.44 15.7267 118.08 15.4467 117.8 15.1C117.52 14.74 117.32 14.3333 117.2 13.88C117.08 13.4267 117.02 12.9533 117.02 12.46V6.4H119.42V11.26C119.42 11.5267 119.433 11.8267 119.46 12.16C119.487 12.48 119.553 12.7867 119.66 13.08C119.78 13.36 119.953 13.6 120.18 13.8C120.42 13.9867 120.753 14.08 121.18 14.08C121.58 14.08 121.913 14.0133 122.18 13.88C122.46 13.7467 122.687 13.5667 122.86 13.34C123.047 13.1133 123.18 12.8533 123.26 12.56C123.34 12.2667 123.38 11.96 123.38 11.64V6.4H125.78V16ZM133.625 9.06C133.158 8.40667 132.531 8.08 131.745 8.08C131.425 8.08 131.111 8.16 130.805 8.32C130.498 8.48 130.345 8.74 130.345 9.1C130.345 9.39333 130.471 9.60667 130.725 9.74C130.978 9.87333 131.298 9.98667 131.685 10.08C132.071 10.1733 132.485 10.2733 132.925 10.38C133.378 10.4733 133.798 10.6267 134.185 10.84C134.571 11.04 134.891 11.32 135.145 11.68C135.398 12.04 135.525 12.5333 135.525 13.16C135.525 13.7333 135.398 14.22 135.145 14.62C134.905 15.0067 134.585 15.32 134.185 15.56C133.798 15.8 133.358 15.9733 132.865 16.08C132.371 16.1867 131.878 16.24 131.385 16.24C130.638 16.24 129.951 16.1333 129.325 15.92C128.698 15.7067 128.138 15.32 127.645 14.76L129.245 13.26C129.551 13.6067 129.878 13.8933 130.225 14.12C130.585 14.3333 131.018 14.44 131.525 14.44C131.698 14.44 131.878 14.42 132.065 14.38C132.251 14.34 132.425 14.2733 132.585 14.18C132.745 14.0867 132.871 13.9733 132.965 13.84C133.071 13.6933 133.125 13.5267 133.125 13.34C133.125 13.0067 132.998 12.76 132.745 12.6C132.491 12.44 132.171 12.3133 131.785 12.22C131.398 12.1133 130.978 12.02 130.525 11.94C130.085 11.8467 129.671 11.7067 129.285 11.52C128.898 11.32 128.578 11.0467 128.325 10.7C128.071 10.3533 127.945 9.87333 127.945 9.26C127.945 8.72667 128.051 8.26667 128.265 7.88C128.491 7.48 128.785 7.15333 129.145 6.9C129.505 6.64667 129.918 6.46 130.385 6.34C130.851 6.22 131.325 6.16 131.805 6.16C132.445 6.16 133.078 6.27333 133.705 6.5C134.331 6.71333 134.838 7.08667 135.225 7.62L133.625 9.06ZM139.311 12.04C139.391 12.76 139.671 13.32 140.151 13.72C140.631 14.12 141.211 14.32 141.891 14.32C142.491 14.32 142.991 14.2 143.391 13.96C143.805 13.7067 144.165 13.3933 144.471 13.02L146.191 14.32C145.631 15.0133 145.005 15.5067 144.311 15.8C143.618 16.0933 142.891 16.24 142.131 16.24C141.411 16.24 140.731 16.12 140.091 15.88C139.451 15.64 138.898 15.3 138.431 14.86C137.965 14.42 137.591 13.8933 137.311 13.28C137.045 12.6533 136.911 11.96 136.911 11.2C136.911 10.44 137.045 9.75333 137.311 9.14C137.591 8.51333 137.965 7.98 138.431 7.54C138.898 7.1 139.451 6.76 140.091 6.52C140.731 6.28 141.411 6.16 142.131 6.16C142.798 6.16 143.405 6.28 143.951 6.52C144.511 6.74667 144.985 7.08 145.371 7.52C145.771 7.96 146.078 8.50667 146.291 9.16C146.518 9.8 146.631 10.54 146.631 11.38V12.04H139.311ZM144.231 10.24C144.218 9.53333 143.998 8.98 143.571 8.58C143.145 8.16667 142.551 7.96 141.791 7.96C141.071 7.96 140.498 8.16667 140.071 8.58C139.658 8.99333 139.405 9.54667 139.311 10.24H144.231Z" fill="#212353"/>
</svg>
