<svg width="50" height="50" viewBox="0 0 50 50" fill="none" xmlns="http://www.w3.org/2000/svg">
<circle opacity="0.1" cx="25" cy="25" r="25" fill="#212353"/>
<path d="M25.0018 20.8978C22.7316 20.8978 20.9005 22.7293 20.9005 25C20.9005 27.2707 22.7316 29.1022 25.0018 29.1022C27.2719 29.1022 29.1031 27.2707 29.1031 25C29.1031 22.7293 27.2719 20.8978 25.0018 20.8978ZM25.0018 27.667C23.5347 27.667 22.3354 26.4709 22.3354 25C22.3354 23.5291 23.5312 22.333 25.0018 22.333C26.4724 22.333 27.6682 23.5291 27.6682 25C27.6682 26.4709 26.4688 27.667 25.0018 27.667ZM30.2274 20.73C30.2274 21.262 29.7991 21.6868 29.2708 21.6868C28.739 21.6868 28.3142 21.2584 28.3142 20.73C28.3142 20.2016 28.7426 19.7732 29.2708 19.7732C29.7991 19.7732 30.2274 20.2016 30.2274 20.73ZM32.9438 21.7011C32.8831 20.4194 32.5904 19.2841 31.6516 18.3487C30.7165 17.4133 29.5814 17.1205 28.2999 17.0562C26.9793 16.9813 23.0207 16.9813 21.7001 17.0562C20.4222 17.1169 19.2871 17.4097 18.3484 18.3451C17.4096 19.2805 17.1205 20.4158 17.0562 21.6975C16.9813 23.0185 16.9813 26.9779 17.0562 28.2989C17.1169 29.5806 17.4096 30.7159 18.3484 31.6513C19.2871 32.5867 20.4186 32.8795 21.7001 32.9438C23.0207 33.0187 26.9793 33.0187 28.2999 32.9438C29.5814 32.8831 30.7165 32.5903 31.6516 31.6513C32.5868 30.7159 32.8795 29.5806 32.9438 28.2989C33.0187 26.9779 33.0187 23.0221 32.9438 21.7011ZM31.2376 29.7163C30.9592 30.416 30.4202 30.9551 29.717 31.2372C28.664 31.6549 26.1654 31.5585 25.0018 31.5585C23.8381 31.5585 21.336 31.6513 20.2866 31.2372C19.5869 30.9587 19.048 30.4196 18.766 29.7163C18.3484 28.6631 18.4447 26.1639 18.4447 25C18.4447 23.8361 18.3519 21.3334 18.766 20.2837C19.0444 19.584 19.5834 19.0449 20.2866 18.7628C21.3395 18.3451 23.8381 18.4415 25.0018 18.4415C26.1654 18.4415 28.6676 18.3487 29.717 18.7628C30.4166 19.0413 30.9556 19.5804 31.2376 20.2837C31.6552 21.3369 31.5588 23.8361 31.5588 25C31.5588 26.1639 31.6552 28.6666 31.2376 29.7163Z" fill="white"/>
</svg>
