<svg width="50" height="50" viewBox="0 0 50 50" fill="none" xmlns="http://www.w3.org/2000/svg">
<circle opacity="0.1" cx="25" cy="25" r="25" fill="#212353"/>
<path fill-rule="evenodd" clip-rule="evenodd" d="M24.9095 21.6592L24.8699 21.0076C24.7511 19.3187 25.7938 17.7761 27.4438 17.1777C28.051 16.9649 29.0805 16.9383 29.7537 17.1245C30.0176 17.2043 30.5193 17.4702 30.8756 17.7096L31.5224 18.1485L32.2351 17.9224C32.6311 17.8027 33.1591 17.6032 33.3966 17.4702C33.621 17.3506 33.819 17.284 33.819 17.324C33.819 17.55 33.3307 18.3213 32.9215 18.7468C32.3671 19.3453 32.5255 19.3985 33.6475 18.9995C34.3206 18.7734 34.3338 18.7734 34.2018 19.0261C34.1226 19.1591 33.7134 19.6245 33.2778 20.0501C32.5387 20.7815 32.4991 20.8613 32.4991 21.473C32.4991 22.4172 32.0503 24.3853 31.6015 25.4624C30.77 27.4838 28.9881 29.5715 27.2062 30.6221C24.6984 32.0982 21.3589 32.4705 18.5475 31.6062C17.6103 31.3136 16 30.5689 16 30.436C16 30.396 16.4883 30.3428 17.0824 30.3296C18.3231 30.303 19.5638 29.9572 20.6197 29.3455L21.3326 28.92L20.5141 28.6407C19.3526 28.2417 18.3099 27.3242 18.0459 26.4598C17.9667 26.1805 17.9931 26.1672 18.7322 26.1672L19.4978 26.1539L18.851 25.8481C18.0855 25.4624 17.3859 24.8108 17.0427 24.1459C16.7919 23.6672 16.4752 22.457 16.5676 22.364C16.5939 22.3241 16.8712 22.4038 17.188 22.5102C18.0987 22.8427 18.2175 22.7629 17.6895 22.2044C16.6995 21.1937 16.396 19.691 16.8712 18.2681L17.0956 17.6298L17.9667 18.4942C19.7486 20.2362 21.8473 21.2735 24.2496 21.5794L24.9095 21.6592Z" fill="white"/>
</svg>
